<!DOCTYPE svg PUBLIC "-//W3C//DTD SVG 1.1//EN" "http://www.w3.org/Graphics/SVG/1.1/DTD/svg11.dtd">
<!-- Uploaded to: SVG Repo, www.svgrepo.com, Transformed by: SVG Repo Mixer Tools -->
<svg width="99px" height="99px" viewBox="-102.4 -102.4 1228.80 1228.80" class="icon" version="1.1" xmlns="http://www.w3.org/2000/svg" fill="#000000">
<g id="SVGRepo_bgCarrier" stroke-width="0">
<path transform="translate(-102.4, -102.4), scale(38.4)" d="M16,31.773227245679923C18.3693623933546,31.967017762733587,19.719227450111255,28.94198104311184,21.4453403468067,27.307365741762737C22.781498636984768,26.042034377672422,23.98208499706153,24.715056804571272,25.041868250200913,23.210649315315933C26.056237140012723,21.77070945008407,26.96768162254356,20.298124382099147,27.55323409206729,18.636950289616166C28.182809609493326,16.850885686967747,28.80437698926458,15.007198506192202,28.597059762511314,13.124803312704062C28.381602451504993,11.168497929925286,27.523385198061703,9.326055138459964,26.353472949704084,7.743380840097187C25.164186703588854,6.134497115898791,23.509477419549505,4.992244756381018,21.807737315196476,3.9401091993229453C19.980986551667776,2.810683250392724,18.132108966119233,1.6004615417164005,16.000000000000004,1.3421348439795633C13.781517575480278,1.073343122815091,11.487935230279748,1.4801388906805406,9.472532265376667,2.4455735836190904C7.455626394851419,3.4117282106120803,5.781662882189974,4.99818182237302,4.517157985166309,6.8427390644293205C3.2913441501028537,8.630856921624765,2.977891959096485,10.811839076661947,2.3208764820895347,12.877829321660101C1.6134703909621906,15.102273242188794,-0.01598501586237483,17.26144186616844,0.47837971687144965,19.54270854158588C0.9723759487148826,21.822274754277224,2.965430369237134,23.558371810605927,4.913424254101036,24.84124913118351C6.679418081919432,26.004267889913596,9.17443538881092,25.32932470673114,10.967366734239835,26.450370657452694C13.064027250215947,27.761325919328883,13.535460184997554,31.57165215257124,16,31.773227245679923" fill="#F1C50D" strokewidth="0"/>
</g>
<g id="SVGRepo_tracerCarrier" stroke-linecap="round" stroke-linejoin="round"/>
<g id="SVGRepo_iconCarrier">
<path d="M517.8 811c17.1 0 31 13.9 31 30.9 0 17.1-13.9 30.9-31 30.9s-31-13.9-31-30.9 13.9-30.9 31-30.9m0-20c-28.1 0-51 22.8-51 50.9 0 28.1 22.8 50.9 51 50.9s51-22.8 51-50.9c-0.1-28.1-22.9-50.9-51-50.9zM334.218 304.477l65.69-65.69 14.142 14.143-65.69 65.69zM352.086 387.799L483.253 256.63l14.142 14.142-131.167 131.168z" fill="#80833"/>
<path d="M808 108.4v807.2H216V108.4h592m44-44H172v895.2h680V64.4z" fill="#8083339393A"/>
<path d="M747.1 173.4v572.9H279.9V173.4h467.2m22-22H257.9v616.9h511.2V151.4z" fill="#8083339393A"/>
</g>
</svg>