<!DOCTYPE svg PUBLIC "-//W3C//DTD SVG 1.1//EN" "http://www.w3.org/Graphics/SVG/1.1/DTD/svg11.dtd">
<!-- Uploaded to: SVG Repo, www.svgrepo.com, Transformed by: SVG Repo Mixer Tools -->
<svg width="100px" height="100px" viewBox="-102.4 -102.4 1228.80 1228.80" class="icon" version="1.1" xmlns="http://www.w3.org/2000/svg" fill="#000000">
<g id="SVGRepo_bgCarrier" stroke-width="0">
<path transform="translate(-102.4, -102.4), scale(38.4)" d="M16,28.247373456464096C18.895769675962296,28.391892384013847,22.049333938737018,29.25458598603123,24.464207564327058,27.649982262655108C26.90424862447694,26.0286556106857,27.603641158510676,22.8472913237628,28.37875349138512,20.022100824162884C29.119406783701475,17.322509350511893,29.4934289610819,14.553018063357882,28.801661617167206,11.840487996073577C28.074290787718333,8.988350984545473,26.62873995570893,6.360284071069054,24.40332568434291,4.433814456239366C22.03382859667786,2.382616977842602,19.0957946548336,0.2706659391727188,16.000000000000004,0.7585009511779326C12.958436430218153,1.2377902342259728,11.835270993984338,5.029632892818002,9.323177808811092,6.810142649846858C6.761468147620181,8.625819342632814,2.7637478788499443,8.455313367524557,1.255323680331193,11.209164249160683C-0.2930911931906286,14.03602400702842,0.456286959767223,17.678437994002053,1.7539915205421632,20.628808747676846C2.9778722322767033,23.411338737193088,5.447576270779914,25.401176493837607,8.128130350684529,26.834699065623564C10.53792501357945,28.123423314287905,13.270647261844948,28.111159884681296,16,28.247373456464096" fill="#F1C50D" strokewidth="0"/>
</g>
<g id="SVGRepo_tracerCarrier" stroke-linecap="round" stroke-linejoin="round"/>
<g id="SVGRepo_iconCarrier">
<path d="M511.3 676.9m-10 0a10 10 0 1 0 20 0 10 10 0 1 0-20 0Z" fill="#80833"/>
<path d="M960 756V138.5H64V756h320.1v85.5H256.2v44h511.9v-44h-128V756H960zM108 182.5h808v427.1H108V182.5z m488.1 659h-168V756h168v85.5zM108 712v-82.5h808V712H108z" fill="#8083339393A"/>
<path d="M167.536 327.703l90.72-90.721 14.143 14.142-90.721 90.72zM172.959 423.469l181.159-181.16 14.142 14.143L187.1 437.61z" fill="#80833"/>
</g>
</svg>