<!DOCTYPE svg PUBLIC "-//W3C//DTD SVG 1.1//EN" "http://www.w3.org/Graphics/SVG/1.1/DTD/svg11.dtd">
<!-- Uploaded to: SVG Repo, www.svgrepo.com, Transformed by: SVG Repo Mixer Tools -->
<svg width="100px" height="100px" viewBox="-102.4 -102.4 1228.80 1228.80" class="icon" version="1.1" xmlns="http://www.w3.org/2000/svg" fill="#000000">
<g id="SVGRepo_bgCarrier" stroke-width="0">
<path transform="translate(-102.4, -102.4), scale(38.4)" d="M16,27.928141164127737C18.500832076948285,27.714063386677132,21.162296618754283,28.664256612631306,23.362300978960867,27.455963938249937C25.607794456857857,26.222687600806996,27.146084450724697,23.87635494976925,27.85808888395352,21.41540773968182C28.5250640884194,19.110097980324912,27.668875779587857,16.73917779599697,27.140165253979436,14.39828604496076C26.652569985267107,12.239434107864398,25.985499511583804,10.218579815634147,24.894292048402534,8.293052068580664C23.56793920858603,5.952590440867613,22.545253848585343,3.143261784175868,20.11186834620326,1.9962624453429179C17.5977478860799,0.8112079183536727,14.643397739726163,1.5238961302097827,11.944775820062137,2.1891747595504842C9.14816678335869,2.878609694167602,5.727891215296664,3.3692282936515587,4.3291061653863885,5.887112925120881C2.909873067020156,8.441805089637615,5.319231250656243,11.521606712177217,5.1397692917183875,14.438534556371447C4.9819766118994915,17.003255593062832,2.8865214356137123,19.24921784180112,3.351531144923234,21.776362178023255C3.8622403092525213,24.551865025066864,5.242638858330491,27.555484739250197,7.780489613580436,28.789807812255955C10.309078710272463,30.01962633398789,13.198446390596205,28.16796149258488,16,27.928141164127737" fill="#F1C50D" strokewidth="0"/>
</g>
<g id="SVGRepo_tracerCarrier" stroke-linecap="round" stroke-linejoin="round"/>
<g id="SVGRepo_iconCarrier">
<path d="M512 616.2m-10 0a10 10 0 1 0 20 0 10 10 0 1 0-20 0Z" fill="#80833"/>
<path d="M511.6 656.9m-10 0a10 10 0 1 0 20 0 10 10 0 1 0-20 0Z" fill="#80833"/>
<path d="M512.4 697.7m-10 0a10 10 0 1 0 20 0 10 10 0 1 0-20 0Z" fill="#80833"/>
<path d="M512 130.8c42.1 0 81.7 16.4 111.5 46.2s46.2 69.4 46.2 111.5-16.4 81.7-46.2 111.5c-29.8 29.8-69.4 46.2-111.5 46.2s-81.7-16.4-111.5-46.2c-29.8-29.8-46.2-69.4-46.2-111.5s16.4-81.7 46.2-111.5 69.4-46.2 111.5-46.2m0-44c-111.4 0-201.6 90.3-201.6 201.6C310.4 399.8 400.7 490 512 490c111.4 0 201.6-90.3 201.6-201.6S623.3 86.8 512 86.8zM512.3 523.5L84 681.4v255.7h856V681.4L512.3 523.5zM896 893.1H128V712.6l384.3-142.4L896 712.6v180.5z" fill="#8083339393A"/>
<path d="M555.4 585.3l-1.4-0.5v159.9c0 11.7-4.8 22.3-12.4 30-7.7 7.7-18.3 12.4-30 12.4-23.4 0-42.4-19-42.4-42.4V585.3l-1.4 0.5-14.6 5.2v153.8c0 32.2 26.2 58.4 58.4 58.4S570 777 570 744.8V590.5l-14.6-5.2z" fill="#80833"/>
</g>
</svg>